<mxfile host="app.diagrams.net" agent="Mozilla/5.0 (Windows NT 10.0; Win64; x64) AppleWebKit/537.36 (KHTML, like Gecko) Chrome/132.0.0.0 Safari/537.36 OPR/117.0.0.0" version="26.2.6">
  <diagram name="Página-1" id="f26ATUXwMrcRfMTvw1Bg">
    <mxGraphModel dx="694" dy="1547" grid="1" gridSize="10" guides="1" tooltips="1" connect="1" arrows="1" fold="1" page="1" pageScale="1" pageWidth="827" pageHeight="1169" math="0" shadow="0">
      <root>
        <mxCell id="0" />
        <mxCell id="1" parent="0" />
        <mxCell id="CheT1Smpb18L2ok-Bgkh-11" value="" style="edgeStyle=orthogonalEdgeStyle;rounded=0;orthogonalLoop=1;jettySize=auto;html=1;" edge="1" parent="1" source="CheT1Smpb18L2ok-Bgkh-2" target="CheT1Smpb18L2ok-Bgkh-7">
          <mxGeometry relative="1" as="geometry" />
        </mxCell>
        <mxCell id="CheT1Smpb18L2ok-Bgkh-2" value="Início" style="rounded=1;whiteSpace=wrap;html=1;fontSize=12;glass=0;strokeWidth=1;shadow=0;" vertex="1" parent="1">
          <mxGeometry x="440" y="-970" width="60" height="40" as="geometry" />
        </mxCell>
        <mxCell id="CheT1Smpb18L2ok-Bgkh-3" value="Fim" style="rounded=1;whiteSpace=wrap;html=1;fontSize=12;glass=0;strokeWidth=1;shadow=0;" vertex="1" parent="1">
          <mxGeometry x="595" y="-200" width="60" height="40" as="geometry" />
        </mxCell>
        <mxCell id="CheT1Smpb18L2ok-Bgkh-6" value="" style="edgeStyle=orthogonalEdgeStyle;rounded=0;orthogonalLoop=1;jettySize=auto;html=1;" edge="1" parent="1" source="CheT1Smpb18L2ok-Bgkh-7" target="CheT1Smpb18L2ok-Bgkh-9">
          <mxGeometry relative="1" as="geometry" />
        </mxCell>
        <mxCell id="CheT1Smpb18L2ok-Bgkh-7" value="&lt;div&gt;&lt;br&gt;&lt;/div&gt;&lt;div&gt;&lt;br&gt;&lt;/div&gt;Ler A" style="shape=manualInput;whiteSpace=wrap;html=1;" vertex="1" parent="1">
          <mxGeometry x="425" y="-880" width="90" height="60" as="geometry" />
        </mxCell>
        <mxCell id="CheT1Smpb18L2ok-Bgkh-8" value="" style="edgeStyle=orthogonalEdgeStyle;rounded=0;orthogonalLoop=1;jettySize=auto;html=1;" edge="1" parent="1" source="CheT1Smpb18L2ok-Bgkh-9">
          <mxGeometry relative="1" as="geometry">
            <mxPoint x="470" y="-600.0000000000001" as="targetPoint" />
          </mxGeometry>
        </mxCell>
        <mxCell id="CheT1Smpb18L2ok-Bgkh-9" value="&lt;div&gt;&lt;br&gt;&lt;/div&gt;&lt;div&gt;&lt;br&gt;&lt;/div&gt;Ler B" style="shape=manualInput;whiteSpace=wrap;html=1;" vertex="1" parent="1">
          <mxGeometry x="425" y="-740" width="90" height="60" as="geometry" />
        </mxCell>
        <mxCell id="CheT1Smpb18L2ok-Bgkh-14" value="" style="edgeStyle=orthogonalEdgeStyle;rounded=0;orthogonalLoop=1;jettySize=auto;html=1;" edge="1" parent="1" source="CheT1Smpb18L2ok-Bgkh-12" target="CheT1Smpb18L2ok-Bgkh-13">
          <mxGeometry relative="1" as="geometry" />
        </mxCell>
        <mxCell id="CheT1Smpb18L2ok-Bgkh-12" value="soma = A+B" style="rounded=0;whiteSpace=wrap;html=1;" vertex="1" parent="1">
          <mxGeometry x="410" y="-590" width="120" height="60" as="geometry" />
        </mxCell>
        <mxCell id="CheT1Smpb18L2ok-Bgkh-16" value="" style="edgeStyle=orthogonalEdgeStyle;rounded=0;orthogonalLoop=1;jettySize=auto;html=1;" edge="1" parent="1" source="CheT1Smpb18L2ok-Bgkh-13" target="CheT1Smpb18L2ok-Bgkh-15">
          <mxGeometry relative="1" as="geometry" />
        </mxCell>
        <mxCell id="CheT1Smpb18L2ok-Bgkh-13" value="subtração = A-B" style="rounded=0;whiteSpace=wrap;html=1;" vertex="1" parent="1">
          <mxGeometry x="610" y="-590" width="120" height="60" as="geometry" />
        </mxCell>
        <mxCell id="CheT1Smpb18L2ok-Bgkh-18" value="" style="edgeStyle=orthogonalEdgeStyle;rounded=0;orthogonalLoop=1;jettySize=auto;html=1;" edge="1" parent="1" source="CheT1Smpb18L2ok-Bgkh-15" target="CheT1Smpb18L2ok-Bgkh-17">
          <mxGeometry relative="1" as="geometry" />
        </mxCell>
        <mxCell id="CheT1Smpb18L2ok-Bgkh-15" value="multiplicação = A*B" style="rounded=0;whiteSpace=wrap;html=1;" vertex="1" parent="1">
          <mxGeometry x="610" y="-450" width="120" height="60" as="geometry" />
        </mxCell>
        <mxCell id="CheT1Smpb18L2ok-Bgkh-20" value="" style="edgeStyle=orthogonalEdgeStyle;rounded=0;orthogonalLoop=1;jettySize=auto;html=1;" edge="1" parent="1" source="CheT1Smpb18L2ok-Bgkh-17" target="CheT1Smpb18L2ok-Bgkh-19">
          <mxGeometry relative="1" as="geometry" />
        </mxCell>
        <mxCell id="CheT1Smpb18L2ok-Bgkh-17" value="soma" style="shape=display;whiteSpace=wrap;html=1;" vertex="1" parent="1">
          <mxGeometry x="425" y="-440" width="80" height="40" as="geometry" />
        </mxCell>
        <mxCell id="CheT1Smpb18L2ok-Bgkh-22" value="" style="edgeStyle=orthogonalEdgeStyle;rounded=0;orthogonalLoop=1;jettySize=auto;html=1;" edge="1" parent="1" source="CheT1Smpb18L2ok-Bgkh-19" target="CheT1Smpb18L2ok-Bgkh-21">
          <mxGeometry relative="1" as="geometry" />
        </mxCell>
        <mxCell id="CheT1Smpb18L2ok-Bgkh-19" value="subtração" style="shape=display;whiteSpace=wrap;html=1;" vertex="1" parent="1">
          <mxGeometry x="425" y="-320" width="80" height="40" as="geometry" />
        </mxCell>
        <mxCell id="CheT1Smpb18L2ok-Bgkh-24" value="" style="edgeStyle=orthogonalEdgeStyle;rounded=0;orthogonalLoop=1;jettySize=auto;html=1;" edge="1" parent="1" source="CheT1Smpb18L2ok-Bgkh-21" target="CheT1Smpb18L2ok-Bgkh-3">
          <mxGeometry relative="1" as="geometry" />
        </mxCell>
        <mxCell id="CheT1Smpb18L2ok-Bgkh-21" value="multiplicação" style="shape=display;whiteSpace=wrap;html=1;" vertex="1" parent="1">
          <mxGeometry x="585" y="-320" width="80" height="40" as="geometry" />
        </mxCell>
      </root>
    </mxGraphModel>
  </diagram>
</mxfile>
